<svg xmlns="http://www.w3.org/2000/svg" viewBox="0 0 512 512">
  <defs>
    <linearGradient id="bgGrad" x1="0%" y1="0%" x2="100%" y2="100%">
      <stop offset="0%" style="stop-color:#4CAF50"/>
      <stop offset="100%" style="stop-color:#2E7D32"/>
    </linearGradient>
  </defs>
  
  <!-- Background -->
  <rect width="512" height="512" rx="80" fill="url(#bgGrad)"/>
  
  <!-- Chat bubble -->
  <ellipse cx="256" cy="230" rx="160" ry="130" fill="white" opacity="0.95"/>
  <polygon points="200,340 240,340 180,400" fill="white" opacity="0.95"/>
  
  <!-- Microphone icon -->
  <rect x="226" y="170" width="60" height="100" rx="30" fill="#2E7D32"/>
  <rect x="246" y="280" width="20" height="40" fill="#2E7D32"/>
  <path d="M216 250 Q216 310 256 310 Q296 310 296 250" stroke="#2E7D32" stroke-width="12" fill="none"/>
  <rect x="236" y="310" width="40" height="12" rx="6" fill="#2E7D32"/>
  
  <!-- Sound waves -->
  <path d="M160 200 Q140 230 160 260" stroke="#4CAF50" stroke-width="8" fill="none" stroke-linecap="round"/>
  <path d="M140 180 Q110 230 140 280" stroke="#4CAF50" stroke-width="8" fill="none" stroke-linecap="round" opacity="0.7"/>
  <path d="M352 200 Q372 230 352 260" stroke="#4CAF50" stroke-width="8" fill="none" stroke-linecap="round"/>
  <path d="M372 180 Q402 230 372 280" stroke="#4CAF50" stroke-width="8" fill="none" stroke-linecap="round" opacity="0.7"/>
</svg>

